<?xml version="1.0" encoding="utf-8"?>
<!-- Generator: Adobe Illustrator 16.0.0, SVG Export Plug-In . SVG Version: 6.00 Build 0)  -->
<!DOCTYPE svg PUBLIC "-//W3C//DTD SVG 1.1//EN" "http://www.w3.org/Graphics/SVG/1.1/DTD/svg11.dtd">
<svg version="1.1" id="Capa_1" xmlns="http://www.w3.org/2000/svg" xmlns:xlink="http://www.w3.org/1999/xlink" x="0px" y="0px"
	 width="512px" height="512px" viewBox="0 0 512 512" enable-background="new 0 0 512 512" xml:space="preserve">
<g>
	<g>
		<g>
			<g>
				<path fill="none" stroke="#32A3C5" stroke-width="3" stroke-miterlimit="10" d="M275.091,301.724
					c1.759-0.315,3.039-1.846,3.039-3.631v-19.658c8.016-2.041,15.694-5.226,22.803-9.455l13.907,13.906
					c1.264,1.265,3.253,1.439,4.718,0.416c10.519-7.334,19.656-16.471,26.99-26.989c1.023-1.466,0.848-3.454-0.416-4.718
					l-13.907-13.908c4.229-7.106,7.414-14.787,9.455-22.803h19.659c1.785,0,3.315-1.279,3.63-3.038
					c2.229-12.63,2.229-25.553,0-38.184c-0.065-0.271-0.162-0.534-0.288-0.783c3.658-10.433,2.165-21.981-4.027-31.141
					c-6.192-9.158-16.354-14.847-27.399-15.337c-0.095-0.872-0.243-1.729-0.406-2.579c-0.03-0.155-0.042-0.317-0.074-0.473
					c-0.214-1.042-0.481-2.065-0.791-3.07c-0.099-0.318-0.227-0.622-0.334-0.936c-0.232-0.681-0.466-1.361-0.741-2.021
					c-0.156-0.375-0.341-0.733-0.51-1.1c-0.267-0.578-0.53-1.158-0.828-1.718c-0.205-0.384-0.433-0.751-0.651-1.126
					c-0.304-0.519-0.606-1.038-0.938-1.539c-0.245-0.372-0.509-0.729-0.769-1.09c-0.344-0.479-0.689-0.953-1.057-1.412
					c-0.281-0.351-0.577-0.688-0.872-1.028c-0.382-0.438-0.768-0.869-1.171-1.288c-0.315-0.326-0.641-0.642-0.97-0.955
					c-0.417-0.398-0.842-0.788-1.28-1.164c-0.345-0.297-0.695-0.586-1.053-0.868c-0.453-0.358-0.915-0.703-1.388-1.038
					c-0.371-0.264-0.743-0.523-1.126-0.772c-0.488-0.316-0.986-0.615-1.492-0.906c-0.394-0.228-0.786-0.455-1.188-0.666
					c-0.522-0.274-1.058-0.523-1.597-0.771c-0.409-0.188-0.816-0.38-1.234-0.552c-0.562-0.229-1.136-0.429-1.711-0.628
					c-0.418-0.145-0.83-0.299-1.256-0.427c-0.609-0.185-1.235-0.331-1.859-0.479c-0.408-0.098-0.812-0.212-1.227-0.294
					c-0.702-0.141-1.419-0.233-2.136-0.327c-0.353-0.047-0.698-0.115-1.054-0.15c-1.081-0.106-2.175-0.167-3.282-0.167
					c-4.448-0.019-8.854,0.875-12.945,2.625c-0.144-0.231-0.321-0.433-0.47-0.66c-0.394-0.6-0.819-1.174-1.247-1.749
					c-0.974-1.325-2.037-2.585-3.18-3.77c-0.133-0.136-0.252-0.284-0.387-0.418c-0.691-0.693-1.422-1.334-2.163-1.966
					c-0.247-0.211-0.493-0.422-0.746-0.626c-0.762-0.615-1.538-1.203-2.344-1.754c-0.225-0.153-0.458-0.292-0.686-0.44
					c-2.449-1.597-5.082-2.893-7.842-3.858c-0.652-0.23-1.306-0.456-1.974-0.65c-0.614-0.177-1.231-0.333-1.856-0.479
					c-0.854-0.2-1.723-0.362-2.6-0.502c-0.504-0.079-1.002-0.172-1.513-0.231c-0.44-0.052-0.885-0.086-1.33-0.122
					c-0.074-0.012-0.134-0.056-0.209-0.063c-0.925-0.083-1.847-0.089-2.771-0.089c-10.606,0.017-20.694,4.589-27.697,12.555
					c-2.668-1.632-5.545-2.897-8.551-3.76c-0.17-0.05-0.339-0.1-0.509-0.146c-1.384-0.38-2.789-0.675-4.208-0.884
					c-0.234-0.034-0.471-0.056-0.705-0.084c-1.47-0.193-2.951-0.295-4.434-0.304c-16.322-0.072-30.51,11.19-34.143,27.104
					c-0.41,0.105-0.802,0.249-1.207,0.366c-0.394,0.116-0.786,0.23-1.175,0.358c-0.893,0.289-1.766,0.614-2.627,0.963
					c-0.275,0.112-0.556,0.213-0.829,0.331c-3.463,1.49-6.7,3.458-9.618,5.846c-0.178,0.146-0.348,0.3-0.523,0.448
					c-0.758,0.643-1.49,1.309-2.198,1.998c-0.232,0.229-0.46,0.461-0.688,0.694c-0.629,0.646-1.234,1.312-1.816,1.998
					c-0.235,0.275-0.472,0.548-0.7,0.83c-0.563,0.698-1.095,1.419-1.611,2.153c-0.197,0.279-0.406,0.55-0.597,0.836
					c-0.668,1.003-1.302,2.028-1.879,3.089c-0.105,0.194-0.19,0.399-0.293,0.595c-0.457,0.872-0.891,1.757-1.284,2.662
					c-0.196,0.451-0.363,0.915-0.544,1.375c-0.266,0.68-0.524,1.362-0.755,2.059c-0.166,0.504-0.315,1.014-0.462,1.526
					c-0.2,0.695-0.381,1.397-0.543,2.106c-0.115,0.504-0.229,1.006-0.325,1.516c-0.15,0.795-0.266,1.6-0.369,2.409
					c-0.055,0.437-0.125,0.868-0.166,1.309c-0.119,1.261-0.193,2.532-0.193,3.818c-0.002,5.328,1.051,10.604,3.1,15.523
					c-0.743,0.55-1.25,1.359-1.42,2.269c-2.24,12.629-2.24,25.555,0,38.184c0.315,1.758,1.845,3.038,3.631,3.038h19.659
					c2.041,8.016,5.226,15.695,9.455,22.803l-13.907,13.907c-1.266,1.263-1.441,3.254-0.415,4.718
					c7.334,10.519,16.471,19.655,26.988,26.99c1.466,1.023,3.455,0.849,4.719-0.417l13.907-13.905
					c7.108,4.229,14.788,7.413,22.804,9.455v19.658c0,1.785,1.279,3.315,3.038,3.631
					C249.537,303.964,262.462,303.964,275.091,301.724z M152.727,155.87c0-1.071,0.061-2.13,0.161-3.176
					c0.035-0.377,0.1-0.747,0.148-1.12c0.086-0.658,0.177-1.315,0.301-1.962c0.085-0.443,0.191-0.879,0.295-1.315
					c0.132-0.565,0.271-1.128,0.433-1.683c0.131-0.449,0.274-0.892,0.423-1.333c0.181-0.534,0.374-1.062,0.581-1.582
					c0.168-0.424,0.339-0.847,0.524-1.263c0.24-0.541,0.5-1.068,0.768-1.593c0.188-0.369,0.371-0.741,0.572-1.102
					c0.342-0.613,0.713-1.207,1.092-1.795c0.16-0.248,0.307-0.504,0.472-0.748c1.164-1.706,2.482-3.301,3.94-4.764
					c0.047-0.047,0.098-0.09,0.146-0.138c0.682-0.674,1.391-1.318,2.127-1.933c0.131-0.109,0.27-0.212,0.402-0.319
					c0.665-0.536,1.348-1.051,2.053-1.535c0.181-0.125,0.368-0.244,0.552-0.366c0.672-0.442,1.361-0.862,2.066-1.256
					c0.222-0.124,0.444-0.246,0.67-0.365c0.685-0.362,1.386-0.697,2.098-1.013c0.256-0.112,0.51-0.229,0.769-0.335
					c0.703-0.29,1.423-0.546,2.149-0.788c0.278-0.093,0.551-0.194,0.832-0.279c0.759-0.23,1.533-0.42,2.313-0.597
					c0.255-0.058,0.503-0.131,0.76-0.183c9.271-1.869,18.901,0.306,26.467,5.982c1.628,1.217,3.935,0.887,5.156-0.738
					c1.222-1.626,0.896-3.934-0.727-5.158c-7.012-5.293-15.563-8.144-24.349-8.117c-0.73,0-1.442,0.071-2.163,0.109
					c3.841-11.143,14.351-18.602,26.137-18.551c1.52,0,3.036,0.123,4.535,0.368c0.159,0.026,0.307,0.085,0.465,0.114
					c4.315,0.774,8.38,2.584,11.845,5.271c0.032,0.025,0.075,0.03,0.107,0.054c4.508,3.481,7.824,8.274,9.494,13.72
					c0.6,1.947,2.664,3.039,4.611,2.441c1.947-0.599,3.041-2.663,2.441-4.611c-1.751-5.713-4.935-10.884-9.248-15.019
					c5.591-6.172,13.525-9.7,21.854-9.716c1.237,0.01,2.474,0.096,3.7,0.258c0.391,0.049,0.777,0.113,1.163,0.178
					c0.839,0.139,1.665,0.319,2.481,0.527c0.413,0.106,0.832,0.195,1.238,0.319c1.012,0.307,2.006,0.668,2.979,1.082
					c0.564,0.241,1.107,0.522,1.653,0.798c0.457,0.229,0.909,0.466,1.353,0.718c0.594,0.339,1.183,0.686,1.749,1.063
					c0.327,0.218,0.637,0.46,0.955,0.69c0.988,0.718,1.932,1.496,2.826,2.33c0.349,0.326,0.7,0.648,1.033,0.992
					c0.439,0.452,0.861,0.92,1.271,1.397c0.449,0.528,0.876,1.078,1.291,1.64c0.329,0.444,0.659,0.887,0.964,1.351
					c0.56,0.855,1.075,1.74,1.545,2.649c2.17,4.174,3.305,8.81,3.306,13.514c0,2.036,1.651,3.688,3.688,3.688
					c2.038,0,3.688-1.652,3.688-3.688c-0.009-4.39-0.807-8.742-2.354-12.85c3.087-1.27,6.394-1.917,9.731-1.904
					c11.687,0.002,21.915,7.853,24.938,19.142s-1.912,23.2-12.033,29.044c-1.141,0.659-1.843,1.878-1.841,3.196
					c0.001,1.317,0.705,2.535,1.848,3.193c1.142,0.657,2.548,0.656,3.689-0.004c9.082-5.285,15.139-14.544,16.341-24.983
					c14.939,0.854,26.487,13.438,26.056,28.396c-0.431,14.958-12.685,26.856-27.647,26.848h-22.792l-22.421-16.013l5.945-13.548
					c0.183,0.01,0.354,0.055,0.54,0.055c5.398,0.055,10.064-3.758,11.088-9.06c1.022-5.301-1.89-10.576-6.921-12.534
					c-5.031-1.959-10.743-0.041-13.574,4.558c-2.829,4.597-1.969,10.561,2.046,14.171l-5.879,13.396
					c-0.406,0.926-0.615,1.926-0.615,2.937c-0.002,2.389,1.146,4.633,3.084,6.03l14.015,10.008h-29.062v-30.186
					c5.08-1.796,8.128-6.991,7.217-12.303c-0.91-5.312-5.516-9.194-10.904-9.194c-5.39,0-9.995,3.883-10.906,9.194
					s2.137,10.507,7.218,12.303v30.186h-14.753v-8.056c5.08-1.796,8.128-6.991,7.217-12.303s-5.517-9.194-10.905-9.194
					c-5.39,0-9.995,3.883-10.906,9.194s2.137,10.507,7.218,12.303v8.056h-14.753v-30.17c-0.008-3.514-2.485-6.537-5.929-7.232
					l-13.018-2.604c-1.555-5.107-6.556-8.358-11.854-7.706s-9.362,5.019-9.633,10.351c-0.27,5.332,3.331,10.087,8.538,11.271
					c5.206,1.184,10.51-1.545,12.572-6.469l11.946,2.389v30.171h-29.507C167.597,189.045,152.747,174.195,152.727,155.87z
					 M292.883,152.183c-2.037,0-3.688-1.651-3.688-3.688c0-2.037,1.651-3.688,3.688-3.688s3.688,1.651,3.688,3.688
					C296.568,150.53,294.919,152.18,292.883,152.183z M263.376,152.183c-2.037,0-3.688-1.651-3.688-3.688
					c0-2.037,1.65-3.688,3.688-3.688s3.688,1.651,3.688,3.688C267.062,150.53,265.411,152.18,263.376,152.183z M241.246,174.313
					c-2.037,0-3.688-1.651-3.688-3.688s1.651-3.688,3.688-3.688s3.688,1.65,3.688,3.688
					C244.932,172.659,243.282,174.31,241.246,174.313z M193.298,155.87c-2.037,0-3.688-1.65-3.688-3.688s1.65-3.688,3.688-3.688
					s3.688,1.65,3.688,3.688C196.983,154.219,195.334,155.868,193.298,155.87z M241.246,294.956v-19.436
					c0.001-1.732-1.204-3.23-2.896-3.603c-9.181-2.007-17.93-5.634-25.835-10.714c-1.459-0.938-3.375-0.731-4.602,0.495
					l-13.752,13.753c-7.935-5.898-14.963-12.927-20.86-20.861l13.752-13.752c1.226-1.228,1.432-3.143,0.495-4.602
					c-5.079-7.906-8.707-16.654-10.714-25.834c-0.371-1.692-1.87-2.896-3.602-2.896h-19.438c-1.293-9.042-1.374-18.215-0.243-27.277
					c7.639,10.194,19.629,16.2,32.368,16.212h18.628c1.905,27.011,24.372,47.948,51.449,47.948s49.545-20.938,51.45-47.948h24.162
					c10.562-0.001,20.557-4.774,27.196-12.987c0.741,8.014,0.539,16.086-0.604,24.053h-19.438c-1.73,0-3.229,1.204-3.601,2.896
					c-2.007,9.18-5.635,17.928-10.714,25.834c-0.94,1.459-0.734,3.375,0.495,4.602l13.752,13.752
					c-5.897,7.934-12.926,14.963-20.86,20.86l-13.752-13.752c-1.227-1.227-3.143-1.433-4.602-0.495
					c-7.906,5.079-16.654,8.707-25.835,10.714c-1.691,0.371-2.896,1.87-2.896,3.602v19.437
					C260.969,296.384,251.03,296.384,241.246,294.956z M255.999,218.573c12.82-0.022,23.686-9.443,25.524-22.131h18.549
					c-1.9,22.93-21.065,40.572-44.073,40.572s-42.173-17.643-44.073-40.572h18.55C232.314,209.13,243.179,218.55,255.999,218.573z
					 M237.931,196.442h36.138c-1.753,8.586-9.306,14.753-18.069,14.753C247.236,211.195,239.684,205.028,237.931,196.442z"/>
			</g>
		</g>
	</g>
	<g>
		<path fill="none" stroke="#FFFFFF" stroke-width="3" stroke-miterlimit="10" d="M321.689,354.107h2.521
			c1.297,0,2.384-0.982,2.514-2.274l5.054-50.526c0.137-1.39-0.878-2.627-2.267-2.766c-0.082-0.009-0.166-0.012-0.248-0.013H182.735
			c-1.396,0.001-2.527,1.134-2.525,2.53c0,0.083,0.005,0.165,0.012,0.248l5.053,50.526c0.131,1.29,1.217,2.274,2.514,2.274h2.521
			c0.141,8.976,2.091,38.824,21.061,58.438c11.137,11.514,26.151,17.352,44.63,17.352s33.494-5.838,44.63-17.352
			C319.599,392.932,321.549,363.083,321.689,354.107z M190.075,349.055l-4.547-45.474h140.942l-4.547,45.474H190.075z
			 M255.999,424.845c-17.046,0-30.833-5.314-40.979-15.792c-17.447-18.021-19.445-46.488-19.642-54.945h121.245
			c-0.189,8.448-2.168,36.874-19.626,54.926C286.85,419.525,273.056,424.845,255.999,424.845z"/>
		<path fill="none" stroke="#FFFFFF" stroke-width="3" stroke-miterlimit="10" d="M291.947,399.532
			c-0.72,0.87-1.479,1.717-2.275,2.541c-1.507,1.551-3.133,2.981-4.866,4.275c-1.121,0.83-1.357,2.411-0.527,3.532
			s2.411,1.357,3.532,0.527c0.005-0.002,0.008-0.006,0.013-0.009c1.949-1.455,3.778-3.061,5.473-4.806
			c0.891-0.917,1.738-1.864,2.544-2.84c0.886-1.079,0.729-2.671-0.349-3.556C294.419,398.317,292.837,398.466,291.947,399.532z"/>
		<path fill="none" stroke="#FFFFFF" stroke-width="3" stroke-miterlimit="10" d="M308.802,359.175
			c-1.369-0.161-2.609,0.818-2.771,2.188c-0.002,0.021-0.004,0.04-0.006,0.061c-0.873,9.109-3.185,18.025-6.846,26.412
			c-0.583,1.269-0.026,2.768,1.241,3.35c1.269,0.582,2.769,0.025,3.351-1.242c3.89-8.888,6.348-18.335,7.28-27.992
			C311.195,360.563,310.188,359.32,308.802,359.175z"/>
		<path fill="none" stroke="#FFFFFF" stroke-width="3" stroke-miterlimit="10" d="M255.999,359.16
			c-16.742,0-30.315,13.573-30.315,30.315c0,16.743,13.573,30.316,30.315,30.316c16.743,0,30.315-13.573,30.315-30.316
			C286.296,372.74,272.734,359.179,255.999,359.16z M255.999,414.739c-13.952,0-25.264-11.311-25.264-25.264
			c0-13.952,11.312-25.262,25.264-25.262c13.953,0,25.263,11.31,25.263,25.262C281.246,403.422,269.945,414.723,255.999,414.739z"/>
		<path fill="none" stroke="#FFFFFF" stroke-width="3" stroke-miterlimit="10" d="M255.999,369.266
			c-11.162,0-20.21,9.049-20.21,20.21c0,11.162,9.048,20.211,20.21,20.211s20.211-9.049,20.211-20.211
			C276.196,378.319,267.155,369.278,255.999,369.266z M255.999,404.634c-8.371,0-15.158-6.786-15.158-15.158
			c0-8.371,6.787-15.157,15.158-15.157c8.372,0,15.157,6.786,15.157,15.157C271.147,397.845,264.367,404.625,255.999,404.634z"/>
		<path fill="none" stroke="#FFFFFF" stroke-width="3" stroke-miterlimit="10" d="M255.999,376.845
			c-1.396,0-2.526,1.131-2.526,2.525c0,1.396,1.131,2.526,2.526,2.526c4.184,0.005,7.574,3.396,7.579,7.579
			c0,1.396,1.131,2.525,2.526,2.525s2.525-1.13,2.525-2.525C268.623,382.503,262.972,376.853,255.999,376.845z"/>
		<g>
			<path fill="none" stroke="#FFFFFF" stroke-width="3" stroke-miterlimit="10" d="M200.42,323.792h10.105v5.053H200.42V323.792z"/>
			<path fill="none" stroke="#FFFFFF" stroke-width="3" stroke-miterlimit="10" d="M215.578,323.792h10.105v5.053h-10.105V323.792z"
				/>
			<path fill="none" stroke="#FFFFFF" stroke-width="3" stroke-miterlimit="10" d="M230.735,323.792h10.105v5.053h-10.105V323.792z"
				/>
			<path fill="none" stroke="#FFFFFF" stroke-width="3" stroke-miterlimit="10" d="M245.894,323.792h5.053v5.053h-5.053V323.792z"/>
			<path fill="none" stroke="#FFFFFF" stroke-width="3" stroke-miterlimit="10" d="M261.052,323.792h5.053v5.053h-5.053V323.792z"/>
			<path fill="none" stroke="#FFFFFF" stroke-width="3" stroke-miterlimit="10" d="M271.156,323.792h10.105v5.053h-10.105V323.792z"
				/>
			<path fill="none" stroke="#FFFFFF" stroke-width="3" stroke-miterlimit="10" d="M286.314,323.792h7.58v5.053h-7.58V323.792z"/>
			<path fill="none" stroke="#FFFFFF" stroke-width="3" stroke-miterlimit="10" d="M298.946,323.792h10.105v5.053h-10.105V323.792z"
				/>
		</g>
	</g>
</g>
</svg>
